<svg width="22" height="22" viewBox="0 0 22 22" fill="none" xmlns="http://www.w3.org/2000/svg">
    <circle cx="11" cy="11" r="11" fill="#0A0C1D"/>
    <path d="M11.1364 17H7.01136V5.36364H11.1705C12.3409 5.36364 13.3485 5.59659 14.1932 6.0625C15.0379 6.52462 15.6875 7.18939 16.142 8.05682C16.6004 8.92424 16.8295 9.96212 16.8295 11.1705C16.8295 12.3826 16.6004 13.4242 16.142 14.2955C15.6875 15.1667 15.0341 15.8352 14.1818 16.3011C13.3333 16.767 12.3182 17 11.1364 17ZM9.47159 14.892H11.0341C11.7614 14.892 12.3731 14.7633 12.8693 14.5057C13.3693 14.2443 13.7443 13.8409 13.9943 13.2955C14.2481 12.7462 14.375 12.0379 14.375 11.1705C14.375 10.3106 14.2481 9.60795 13.9943 9.0625C13.7443 8.51705 13.3712 8.11553 12.875 7.85795C12.3788 7.60038 11.767 7.47159 11.0398 7.47159H9.47159V14.892Z" fill="white"/>
</svg>